<?xml version="1.0" encoding="utf-8"?>
<!-- Generator: Adobe Illustrator 16.0.0, SVG Export Plug-In . SVG Version: 6.00 Build 0)  -->
<!DOCTYPE svg PUBLIC "-//W3C//DTD SVG 1.1//EN" "http://www.w3.org/Graphics/SVG/1.1/DTD/svg11.dtd">
<svg version="1.1" id="Layer_1" xmlns="http://www.w3.org/2000/svg" xmlns:xlink="http://www.w3.org/1999/xlink" x="0px" y="0px"
	 width="1024px" height="1024px" viewBox="0 0 1024 1024" enable-background="new 0 0 1024 1024" xml:space="preserve">
<rect fill="none" width="1024" height="1024"/>
<g>
	<g>
		<path fill-rule="evenodd" clip-rule="evenodd" d="M187.287,266.622C187.248,267.175,187.27,269.389,187.287,266.622
			L187.287,266.622z"/>
		<path fill-rule="evenodd" clip-rule="evenodd" d="M187.303,259c0,4.032-0.007,6.35-0.016,7.622
			c0.01-0.139,0.024-0.175,0.042,0.002c2.635,25.92,5.341,53.641,7.961,79.577c9.022,89.445,18.002,179.776,27.039,269.222
			c9.716,96.11,19.432,192.651,29.318,288.749c1.188,11.552,1.77,23.794,5.439,34.598c11.417,33.652,36.88,54.76,71.428,60.737
			c-2.113,2.471-3.515,5.718-3.515,9.253v1.178c0,7.802,6.235,14.063,13.926,14.063h73.679c7.689,0,13.395-6.261,13.395-14.063
			v-1.178c0-2.701-0.686-5.087-1.989-7.243c54.702,0.058,109.499,0,164.199-0.07c-1.346,2.155-2.21,4.567-2.21,7.313v1.178
			c0,7.802,6.3,14.063,13.991,14.063h73.681c7.691,0,13.328-6.261,13.328-14.063v-1.178c0-2.758-0.397,1.24-1.743-13.76
			c0.155,0,0.298,0,0.468,0c11.813,0,24.092,1.355,35.325-2.295c30.227-9.771,49.813-29.907,58.071-60.512
			c4.137-15.374,4.093-31.139,5.723-47.188c6.119-60.033,12.124-119.671,18.215-179.702c7.124-70.163,14.275-140.137,21.429-210.298
			c6.247-61.268,12.491-125.984,18.711-187.252c1.516-14.986,2.917-19.752,4.392-48.752C627.087,259,407.294,259,187.303,259z
			 M399.223,909.955c-15.021,1.148-28.693-9.435-30.09-24.767c-2.297-25.077-3.631-50.216-5.307-75.324
			c-6.113-91.603-12.229-183.221-18.342-274.839c-2.902-43.528-5.881-87.057-8.721-130.6c-1.025-15.953,10.443-29.144,26.131-30.462
			c15.768-1.319,29.174,10.133,30.494,26.83c1.893,24.131,3.242,48.308,4.857,72.47c6.082,91.369,12.211,182.724,18.295,274.109
			c2.965,44.49,5.865,88.996,8.938,135.643C425.713,895.927,414.105,908.822,399.223,909.955z M553.645,406.924
			c0.031,156.654-0.11,313.309-0.11,469.963c0,16.061-6.247,26.535-18.366,31.253c-18,6.999-35.054-5.68-36.356-25.465
			c-0.248-4.051,2.188-8.147,2.188-12.229c0-76.286,0-152.573,0-228.859c0-78.676-2.31-157.368-2.278-236.06
			c0-16.977,8.032-28.926,22.636-31.207c15.734-2.482,29.277,7.558,31.979,23.309C553.832,400.67,553.645,403.805,553.645,406.924z
			 M712.701,407.456c-4.158,60.257-8.037,120.681-12.072,180.953c-5.137,77.031-10.305,154.1-15.455,231.116
			c-1.459,21.756-2.576,43.594-4.471,65.304c-1.24,14.493-13.406,25-27.684,25.187c-14.105,0.155-26.613-12.13-28.367-26.329
			c-0.713-5.896-0.107-3.687-0.107-19.687c0.264,0,0.512,0,0.791,0c7.883-111,15.781-236.468,23.68-355.584
			c2.359-35.66,4.795-70.423,7.107-106.053c1.18-18.171,13.92-30.083,30.432-28.887
			C703.609,374.702,714.006,388.772,712.701,407.456z"/>
	</g>
	<path fill-rule="evenodd" clip-rule="evenodd" d="M843.156,136.68c-7.082-2.299-14.872-7.377-22.351-7.435
		C778.441,128.929,736.076,125,693.714,125c-2.903,0-5.808,0-9.604,0c0,0,0.028-2.451,0-5.382
		c-0.241-23.334,0.355-44.69-0.907-67.982c-1.798-33.077-18.496-48.46-50.932-51.033c-5.864-0.459-11.742-0.321-17.62-0.321
		C550.49,0.227,486.328,0.474,422.18,0.532c-5.878,0.029-11.771,0.47-17.606,1.06c-29.121,2.974-47.023,19.523-52.292,48.735
		c-1.361,7.514-1.657,11.265-1.756,18.937C350.298,88.834,350.44,111,350.44,125c-4.123,0-7.026,0-9.929,0
		c-41.882,0-83.751,4.044-125.619,4.13c-5.128,0.029-10.354,2.222-15.34,3.257c-20.438,4.253-35.309,16.874-42.193,37.177
		c-6.36,18.737-2.238,36.463,10.623,51.104c11.558,13.133,26.571,19.158,43.908,19.158c203.505-0.028,406.997,0.126,610.501,0.054
		c4.859,0,9.816-0.391,14.576-1.397c24.006-5.086,41.441-25.182,43.028-49.292C881.497,166.489,866.229,144.195,843.156,136.68z
		 M615,125c-72,0-130,0-189,0c0-14,0-27,0-56c59,0,117,0,189,0C615,98,615,111,615,125z"/>
</g>
</svg>
